<?xml version="1.0" encoding="UTF-8"?>
<!--
Font Awesome Pro 5.0.13 by @fontawesome - https://fontawesome.com
License - https://fontawesome.com/license (Commercial License)
-->
<svg xmlns="http://www.w3.org/2000/svg" style="display: none;">
  <symbol id="facebook" viewBox="0 0 448 512">
    <title id="facebook-title">Facebook</title>
    <path d="M448 56.7v398.5c0 13.7-11.1 24.7-24.7 24.7H309.1V306.5h58.2l8.7-67.6h-67v-43.2c0-19.6 5.4-32.9 33.5-32.9h35.8v-60.5c-6.2-.8-27.4-2.7-52.2-2.7-51.6 0-87 31.5-87 89.4v49.9h-58.4v67.6h58.4V480H24.7C11.1 480 0 468.9 0 455.3V56.7C0 43.1 11.1 32 24.7 32h398.5c13.7 0 24.8 11.1 24.8 24.7z"></path>
  </symbol>
  <symbol id="facebook-f" viewBox="0 0 264 512">
    <title id="facebook-f-title">Facebook F</title>
    <path d="M76.7 512V283H0v-91h76.7v-71.7C76.7 42.4 124.3 0 193.8 0c33.3 0 61.9 2.5 70.2 3.6V85h-48.2c-37.8 0-45.1 18-45.1 44.3V192H256l-11.7 91h-73.6v229"></path>
  </symbol>
  <symbol id="facebook-messenger" viewBox="0 0 448 512">
    <title id="facebook-messenger-title">Facebook Messenger</title>
    <path d="M224 32C15.9 32-77.5 278 84.6 400.6V480l75.7-42c142.2 39.8 285.4-59.9 285.4-198.7C445.8 124.8 346.5 32 224 32zm23.4 278.1L190 250.5 79.6 311.6l121.1-128.5 57.4 59.6 110.4-61.1-121.1 128.5z"></path>
  </symbol>
  <symbol id="facebook-square" viewBox="0 0 448 512">
    <title id="facebook-square-title">Facebook Square</title>
    <path d="M448 80v352c0 26.5-21.5 48-48 48h-85.3V302.8h60.6l8.7-67.6h-69.3V192c0-19.6 5.4-32.9 33.5-32.9H384V98.7c-6.2-.8-27.4-2.7-52.2-2.7-51.6 0-87 31.5-87 89.4v49.9H184v67.6h60.9V480H48c-26.5 0-48-21.5-48-48V80c0-26.5 21.5-48 48-48h352c26.5 0 48 21.5 48 48z"></path>
  </symbol>
  <symbol id="google" viewBox="0 0 488 512">
    <title id="google-title">Google Logo</title>
    <path d="M488 261.8C488 403.3 391.1 504 248 504 110.8 504 0 393.2 0 256S110.8 8 248 8c66.8 0 123 24.5 166.3 64.9l-67.5 64.9C258.5 52.6 94.3 116.6 94.3 256c0 86.5 69.1 156.6 153.7 156.6 98.2 0 135-70.4 140.8-106.9H248v-85.3h236.1c2.3 12.7 3.9 24.9 3.9 41.4z"></path>
  </symbol>
  <symbol id="imdb" viewBox="0 0 448 512">
    <title id="imdb-title">IMDB</title>
    <path d="M350.5 288.7c0 5.4 1.6 14.4-6.2 14.4-1.6 0-3-.8-3.8-2.4-2.2-5.1-1.1-44.1-1.1-44.7 0-3.8-1.1-12.7 4.9-12.7 7.3 0 6.2 7.3 6.2 12.7v32.7zM265 229.9c0-9.7 1.6-16-10.3-16v83.7c12.2.3 10.3-8.7 10.3-18.4v-49.3zM448 80v352c0 26.5-21.5 48-48 48H48c-26.5 0-48-21.5-48-48V80c0-26.5 21.5-48 48-48h352c26.5 0 48 21.5 48 48zM21.3 228.8c-.1.1-.2.3-.3.4h.3v-.4zM97 192H64v127.8h33V192zm113.3 0h-43.1l-7.6 59.9c-2.7-20-5.4-40.1-8.7-59.9h-42.8v127.8h29v-84.5l12.2 84.5h20.6l11.6-86.4v86.4h28.7V192zm86.3 45.3c0-8.1.3-16.8-1.4-24.4-4.3-22.5-31.4-20.9-49-20.9h-24.6v127.8c86.1.1 75 6 75-82.5zm85.9 17.3c0-17.3-.8-30.1-22.2-30.1-8.9 0-14.9 2.7-20.9 9.2V192h-31.7v127.8h29.8l1.9-8.1c5.7 6.8 11.9 9.8 20.9 9.8 19.8 0 22.2-15.2 22.2-30.9v-36z"></path>
  </symbol>
  <symbol id="instagram" viewBox="0 0 448 512">
    <title id="instagram-title">Instagram</title>
    <path d="M224.1 141c-63.6 0-114.9 51.3-114.9 114.9s51.3 114.9 114.9 114.9S339 319.5 339 255.9 287.7 141 224.1 141zm0 189.6c-41.1 0-74.7-33.5-74.7-74.7s33.5-74.7 74.7-74.7 74.7 33.5 74.7 74.7-33.6 74.7-74.7 74.7zm146.4-194.3c0 14.9-12 26.8-26.8 26.8-14.9 0-26.8-12-26.8-26.8s12-26.8 26.8-26.8 26.8 12 26.8 26.8zm76.1 27.2c-1.7-35.9-9.9-67.7-36.2-93.9-26.2-26.2-58-34.4-93.9-36.2-37-2.1-147.9-2.1-184.9 0-35.8 1.7-67.6 9.9-93.9 36.1s-34.4 58-36.2 93.9c-2.1 37-2.1 147.9 0 184.9 1.7 35.9 9.9 67.7 36.2 93.9s58 34.4 93.9 36.2c37 2.1 147.9 2.1 184.9 0 35.9-1.7 67.7-9.9 93.9-36.2 26.2-26.2 34.4-58 36.2-93.9 2.1-37 2.1-147.8 0-184.8zM398.8 388c-7.8 19.6-22.9 34.7-42.6 42.6-29.5 11.7-99.5 9-132.1 9s-102.7 2.6-132.1-9c-19.6-7.8-34.7-22.9-42.6-42.6-11.7-29.5-9-99.5-9-132.1s-2.6-102.7 9-132.1c7.8-19.6 22.9-34.7 42.6-42.6 29.5-11.7 99.5-9 132.1-9s102.7-2.6 132.1 9c19.6 7.8 34.7 22.9 42.6 42.6 11.7 29.5 9 99.5 9 132.1s2.7 102.7-9 132.1z"></path>
  </symbol>
  <symbol id="twitter" viewBox="0 0 512 512">
    <title id="twitter-title">Twitter</title>
    <path d="M459.37 151.716c.325 4.548.325 9.097.325 13.645 0 138.72-105.583 298.558-298.558 298.558-59.452 0-114.68-17.219-161.137-47.106 8.447.974 16.568 1.299 25.34 1.299 49.055 0 94.213-16.568 130.274-44.832-46.132-.975-84.792-31.188-98.112-72.772 6.498.974 12.995 1.624 19.818 1.624 9.421 0 18.843-1.3 27.614-3.573-48.081-9.747-84.143-51.98-84.143-102.985v-1.299c13.969 7.797 30.214 12.67 47.431 13.319-28.264-18.843-46.781-51.005-46.781-87.391 0-19.492 5.197-37.36 14.294-52.954 51.655 63.675 129.3 105.258 216.365 109.807-1.624-7.797-2.599-15.918-2.599-24.04 0-57.828 46.782-104.934 104.934-104.934 30.213 0 57.502 12.67 76.67 33.137 23.715-4.548 46.456-13.32 66.599-25.34-7.798 24.366-24.366 44.833-46.132 57.827 21.117-2.273 41.584-8.122 60.426-16.243-14.292 20.791-32.161 39.308-52.628 54.253z"></path>
  </symbol>
  <symbol id="twitter-square" viewBox="0 0 448 512">
    <title id="twitter-square-title">Twitter Square</title>
    <path d="M400 32H48C21.5 32 0 53.5 0 80v352c0 26.5 21.5 48 48 48h352c26.5 0 48-21.5 48-48V80c0-26.5-21.5-48-48-48zm-48.9 158.8c.2 2.8.2 5.7.2 8.5 0 86.7-66 186.6-186.6 186.6-37.2 0-71.7-10.8-100.7-29.4 5.3.6 10.4.8 15.8.8 30.7 0 58.9-10.4 81.4-28-28.8-.6-53-19.5-61.3-45.5 10.1 1.5 19.2 1.5 29.6-1.2-30-6.1-52.5-32.5-52.5-64.4v-.8c8.7 4.9 18.9 7.9 29.6 8.3a65.447 65.447 0 0 1-29.2-54.6c0-12.2 3.2-23.4 8.9-33.1 32.3 39.8 80.8 65.8 135.2 68.6-9.3-44.5 24-80.6 64-80.6 18.9 0 35.9 7.9 47.9 20.7 14.8-2.8 29-8.3 41.6-15.8-4.9 15.2-15.2 28-28.8 36.1 13.2-1.4 26-5.1 37.8-10.2-8.9 13.1-20.1 24.7-32.9 34z"></path>
  </symbol>
</svg>
