<svg fill="#000000" xmlns="http://www.w3.org/2000/svg"  viewBox="0 0 24 24" width="48px" height="48px"><path d="M 0 8.5 L 0 14.9375 C 0.328125 14.890625 0.671875 14.824219 1 14.78125 C 1 13.433594 1 12.628906 1 11.28125 C 1.449219 12.605469 1.738281 13.398438 2.1875 14.65625 C 2.539063 14.617188 2.929688 14.566406 3.28125 14.53125 C 3.285156 12.523438 3.277344 10.507813 3.28125 8.5 L 2.28125 8.5 C 2.277344 9.875 2.285156 10.75 2.28125 12.125 C 1.847656 10.785156 1.40625 9.910156 0.96875 8.5 Z M 4.28125 8.5 C 4.277344 10.480469 4.253906 12.457031 4.25 14.4375 C 5.1875 14.351563 6.125 14.273438 7.0625 14.21875 C 7.0625 13.929688 7.0625 13.507813 7.0625 13.21875 C 6.453125 13.257813 5.890625 13.304688 5.28125 13.34375 C 5.28125 12.8125 5.28125 12.375 5.28125 11.84375 C 5.726563 11.835938 6.171875 11.851563 6.625 11.84375 C 6.625 11.554688 6.625 11.132813 6.625 10.84375 C 6.175781 10.851563 5.722656 10.835938 5.28125 10.84375 C 5.28125 10.3125 5.28125 10.03125 5.28125 9.5 C 5.558594 9.496094 6.832031 9.472656 7.0625 9.46875 C 7.0625 9.179688 7.0625 8.789063 7.0625 8.5 Z M 7.71875 8.5 C 7.71875 8.789063 7.71875 9.179688 7.71875 9.46875 C 7.765625 9.46875 8.746094 9.5 8.78125 9.5 C 8.777344 11.097656 8.753906 12.527344 8.75 14.125 C 9.078125 14.113281 9.453125 14.101563 9.78125 14.09375 C 9.78125 12.503906 9.78125 11.058594 9.78125 9.46875 C 10.128906 9.46875 10.496094 9.46875 10.84375 9.46875 L 10.84375 8.5 Z M 11.5 8.5 C 11.5 10.363281 11.5 12.230469 11.5 14.09375 C 11.609375 14.09375 11.703125 14.09375 11.8125 14.09375 C 12.039063 14.09375 12.277344 14.089844 12.5 14.09375 C 12.5 13.304688 12.5 12.570313 12.5 11.78125 C 12.554688 11.78125 13.742188 11.777344 13.875 11.78125 C 13.875 11.496094 13.84375 11.0625 13.84375 10.78125 C 13.71875 10.78125 12.550781 10.78125 12.5 10.78125 L 12.5 9.5 C 12.609375 9.5 14.039063 9.496094 14.3125 9.5 C 14.3125 9.214844 14.3125 8.785156 14.3125 8.5 Z M 14.96875 8.5 C 14.972656 10.382813 14.964844 12.242188 14.96875 14.125 C 15.867188 14.15625 16.789063 14.21875 17.6875 14.28125 C 17.6875 13.992188 17.6875 13.570313 17.6875 13.28125 C 17.121094 13.246094 16.539063 13.210938 15.96875 13.1875 C 15.964844 11.574219 15.972656 10.113281 15.96875 8.5 Z M 18.53125 8.5 C 18.535156 10.445313 18.527344 12.398438 18.53125 14.34375 C 18.859375 14.367188 19.203125 14.378906 19.53125 14.40625 C 19.53125 12.433594 19.535156 10.472656 19.53125 8.5 Z M 20.40625 8.5 C 20.808594 9.484375 21.183594 10.453125 21.59375 11.5 C 21.167969 12.503906 20.738281 13.503906 20.3125 14.46875 C 20.664063 14.503906 21.023438 14.554688 21.375 14.59375 C 21.628906 13.972656 21.839844 13.511719 22.09375 12.875 C 22.347656 13.554688 22.589844 14.082031 22.84375 14.78125 C 23.195313 14.828125 23.648438 14.886719 24 14.9375 C 23.574219 13.796875 23.117188 12.609375 22.6875 11.53125 C 23.113281 10.519531 23.527344 9.558594 23.96875 8.5 L 22.875 8.5 C 22.601563 9.152344 22.417969 9.566406 22.15625 10.1875 C 21.914063 9.539063 21.746094 9.128906 21.5 8.5 Z"/></svg>