<svg version="1" xmlns="http://www.w3.org/2000/svg" width="933.333" height="933.333" viewBox="0 0 700.000000 700.000000"><path d="M278.3 9c-21 5.4-39.5 18.3-50.1 34.8-7.5 11.7-12.5 28.4-12.4 41.2.1 6.4-1.4 8.4-8.4 11.4-12.1 5.3-22.1 14.7-27.8 26.1-4.7 9.2-6.8 18-6.7 28.1l.1 8.2-5.7 2.3c-13.9 5.6-27.7 18-33 29.6-3.1 6.8-3.5 8.5-3.9 16.8-.4 10.5 4.3 22.4 11.5 28.9 1.7 1.5 1.8 2.2.9 4-.6 1.1-1.4 2.3-1.8 2.6-.4.3-1.8 2.5-3 5-3.2 6.4-3.4 14.3-.4 26 1.4 5.2 3.3 13.1 4.3 17.5 3.1 13.5 12.7 54 17.6 74 2.6 10.4 4.9 20.1 5.1 21.5.3 1.4 1.8 7.7 3.3 14 1.6 6.3 3.9 15.8 5.1 21 1.2 5.2 3.5 14.9 5.1 21.5 1.6 6.6 3.2 13.1 3.5 14.5.2 1.4 1.3 5.9 2.3 10 1 4.1 1.6 8 1.4 8.6-.2.6-4 3.5-8.3 6.3-24.7 16-38.1 37.8-38.1 61.7 0 4.6-.4 8.4-.8 8.4s-3.6 2.9-7.1 6.4c-32.5 33-25.7 82.2 13.7 99.1 16.9 7.2 40.6 7 60.3-.7 3-1.2 5.9-2.5 6.5-3 2.2-1.9 4.4-.6 6.7 3.9 3.3 6.8 12.4 15.5 19.9 19.2 11.1 5.4 24.4 6.5 37.4 3.2l7-1.9 5.3 4.9c6.4 5.8 17.7 11.6 26.4 13.4 8.7 1.9 21.9 1.3 29.1-1.3 15.1-5.5 30-18.9 36.7-33l2.5-5.3 65.5-32.7c70.4-35.1 71.8-36 76.1-45.6 1.8-4.2 9.9-35.7 13.4-52.2.2-1 1.6-6.9 3-12.9 1.5-6.1 2.8-11.8 3-12.8.2-1 .6-2.6.9-3.5.3-.9.8-2.8 1-4.2.7-3.1 6.2-26.1 7.5-31.5.8-3.1 7.4-31.1 9.6-40.5.2-.8 1.2-5.3 2.3-10 1.2-4.7 3-12.6 4.2-17.5 1.1-5 2.7-11.7 3.5-15 5.8-24.1 7.7-32.3 8-34 .6-2.6 6.3-26.9 7.5-31.5.5-1.9 1.6-6.4 2.4-10 .8-3.6 2.9-12.4 4.6-19.5 1.8-7.2 3.4-14.1 3.7-15.5 2.3-11.2-.8-22.2-8.4-30.2l-3.6-3.6 3.2-7.7c9.5-22.6 9-46.8-1.3-63.4l-3.5-5.8 2.4-5.9c6.4-15.9 4.9-33.6-4.1-49.9-7.7-13.8-22.4-25.8-37.4-30.7-12.8-4.1-29.7-3.3-40.4 2l-4 2-5.1-3.9c-10.9-8.2-23.7-12.3-38.3-12.1h-9.3l-2.3-3.7c-6.1-9.6-20.8-18.8-34.5-21.7-16-3.3-37.4-.8-50.5 5.8l-4 2-2.9-3.3c-15.3-18-28.2-26.7-45.2-30.5-7-1.6-23.9-1.2-31.2.6z"/></svg>