<svg width="600" height="600" xmlns="http://www.w3.org/2000/svg">

 <g>
  <title>background</title>
  <rect fill="none" id="canvas_background" height="602" width="602" y="-1" x="-1"/>
 </g>
 <g>
  <title>Layer 1</title>
  <path id="svg_9" d="m131.779661,222.033898l36.864406,183.050848l66.949153,38.135593l43.220339,11.016949l22.033898,41.525424l22.881356,53.38983l58.474576,-27.118644l66.949153,-36.440678l45.762712,-269.491525l-206.779661,59.322034l-137.288136,-61.864407l-19.067796,8.474576z" stroke-opacity="null" stroke-width="null" stroke="null" fill="#e40000"/>
  <path id="svg_7" d="m133.860156,451.900363l-26.26483,76.582563l13.291188,29.11403l64.557196,-0.632914l36.07608,20.253238l24.05072,-0.632914c0.315366,0.632905 30.695222,12.025351 31.328136,12.025351c0.632914,0 29.746943,-8.227878 29.431577,-8.860782c0.315366,0.632904 12.340726,-45.569794 12.02536,-46.202699c0.315366,0.632905 -30.697404,-24.050728 -31.01277,-24.683634c0.315366,0.632906 -5.380858,-45.569792 -5.696223,-46.202699c0.315365,0.632907 -37.659455,-16.455763 -37.974821,-17.088669c0.315366,0.632906 -38.292368,-10.75954 -38.607735,-11.392447c0.315367,0.632907 -43.98859,-10.759539 -44.303958,-11.392446c0.315368,0.632907 -18.039129,22.151972 -18.354497,21.519065c0.315368,0.632907 -2.8492,16.455749 -3.164568,15.822842c0.315368,0.632907 -7.91251,1.26582 -8.227878,0.632914c0.315368,0.632906 74.683808,-136.076452 2.847023,-8.860799z" stroke-opacity="null" stroke-width="null" stroke="null" fill="#ffeb3b"/>
  <path id="svg_6" d="m160.463982,129.068855l16.278955,-36.821445l12.015419,-22.092868l12.790607,-29.069562l57.75153,-21.317678l32.170316,20.54249l55.425965,6.589101l39.14701,13.178201l44.185734,12.015419l31.007533,5.813913l25.581215,16.278954l3.875941,32.170316l3.488348,31.007532l-9.30226,43.410546l-57.363936,27.519186l-124.417726,49.612052c0.387585,0.387586 -181.394071,-82.557562 -181.781665,-82.557562l4.408884,-8.042578l2.858508,-8.042578l6.492203,-15.309968" stroke-opacity="null" stroke-width="null" stroke="null" fill="#ffeb3b"/>
  <rect id="svg_1" height="106" width="115" fill="none" y="0" x="0"/>
  <path stroke="null" id="svg_2" d="m503.692877,202.40065c-0.343213,-0.274571 -0.75507,-0.480499 -1.098283,-0.75507c7.550696,-14.140393 10.708259,-30.820566 8.305765,-44.617746c-1.441496,-8.305765 -4.804988,-15.444604 -9.609976,-21.141947c6.246484,-11.394686 6.932911,-23.681727 4.530417,-33.909487c-5.697343,-24.162226 -28.967214,-43.038964 -52.992154,-43.038964c-8.237122,0 -16.062389,2.127923 -23.063943,6.109199c-9.335405,-8.717621 -22.034302,-14.071751 -36.03741,-14.071751c0,0 0,0 0,0c-2.882993,0 -5.697343,0.274571 -8.44305,0.75507c-1.304211,-2.333851 -2.745707,-4.393132 -4.187204,-6.109199c-9.335405,-11.394686 -23.956298,-17.64117 -41.185612,-17.64117c0,0 0,0 0,0c-11.669257,0 -23.75037,2.951636 -33.840844,8.16848c-13.522609,-19.563166 -31.987492,-30.271425 -53.129439,-30.271425c-9.884547,0 -19.837736,2.471137 -29.584998,7.344767c-31.712921,15.856461 -39.675473,43.038964 -38.439904,66.789334c-12.973468,3.363492 -24.505439,12.218398 -31.026494,24.436796c-5.148201,9.678619 -6.932911,20.524163 -5.491415,31.644278c-18.808096,5.971914 -33.772202,20.386878 -36.517909,37.135693c-1.647424,10.021832 1.166926,22.034302 11.669257,31.506993c-6.452413,6.658341 -9.19812,14.895463 -7.001554,24.02494l43.038964,180.39298l0,0c-25.80965,13.728537 -40.773756,33.909487 -40.773756,57.934427c0,1.990638 0.137285,4.530417 0.274571,6.315127c-8.923549,6.246484 -16.268317,15.513247 -20.661449,26.152864c-8.031194,19.42588 -4.324489,40.3619 9.678619,54.43365c9.747261,9.747261 24.02494,15.238676 40.293257,15.238676c12.698897,0 25.191866,-3.363492 36.243338,-9.335405c4.049919,10.365046 11.463329,18.190312 21.622446,22.377516c11.326043,4.667703 24.917295,4.324489 35.831482,-0.343213c5.35413,6.521055 13.728537,12.218398 23.269871,15.101391c3.363492,1.02964 8.374408,2.127923 14.346321,2.127923c12.630254,0 29.516355,-5.010916 43.794034,-26.290149c1.716067,-2.608422 2.951636,-5.560058 3.981276,-8.717621l109.553728,-54.776864c7.276125,-3.638062 12.561612,-10.296403 14.414964,-18.258955l61.778418,-260.842209c2.402494,-10.433688 -1.304211,-21.21059 -9.541333,-27.868931zm-360.442747,21.416518l44.068605,21.141947l37.204336,185.884395c-10.021832,-10.914187 -22.858015,-18.39624 -37.135693,-20.730091c0,0 0,0 0,0l-44.137247,-186.296251zm163.02638,337.516089c-8.648978,12.904825 -19.42588,18.739453 -31.232422,16.817458c-10.502331,-1.716067 -17.915741,-8.992192 -18.533525,-11.120115c0,-4.187204 -2.539779,-7.893909 -6.38377,-9.541333c-3.84399,-1.578782 -8.305765,-0.686427 -11.188758,2.265209c-4.59906,4.59906 -15.925103,7.138839 -24.848652,3.432134c-8.305765,-3.432134 -12.492969,-11.394686 -12.492969,-23.613084c0,-5.697343 -4.59906,-10.296403 -10.296403,-10.296403s-10.296403,4.59906 -10.296403,10.296403c0,-0.549141 0.068643,-1.166926 0.137285,-1.716067c-9.95319,7.276125 -21.897017,10.776902 -32.811204,10.776902c-10.296403,0 -19.700451,-3.088921 -25.741007,-9.129477c-19.42588,-19.42588 0,-54.914149 27.457075,-54.914149c-19.42588,0 -13.728537,-54.914149 27.457075,-54.914149c14.689535,0 27.319789,7.893909 35.968768,19.975022c-12.01247,13.522609 -17.847098,30.477353 -18.258955,31.644278c-1.78471,5.422772 1.098283,11.257401 6.521055,13.04211c5.422772,1.78471 11.257401,-1.098283 13.04211,-6.521055c2.951636,-8.854907 15.032748,-34.115415 31.43835,-34.115415c17.229314,0 26.084221,8.511693 30.477353,15.58189c6.795626,11.051473 7.41341,26.358792 1.510139,38.165334c-1.578782,3.157564 -1.441496,7.001554 0.480499,10.021832c1.853353,3.088921 5.148201,4.942273 8.717621,4.942273c8.854907,0 14.140393,6.38377 17.023386,11.737899c5.285487,9.95319 5.285487,22.102945 1.853353,27.182504zm-5.148201,-85.872001c-1.441496,-5.971914 -3.706705,-11.737899 -6.932911,-16.954744c-6.521055,-10.570974 -15.925103,-17.984384 -27.388432,-21.96566l-13.316681,-159.800174l47.638024,22.858015l0,175.862563zm54.914149,43.519463l-27.457075,13.728537l0,-233.110563l47.638024,-22.858015l-20.18095,242.24004zm68.642686,-34.321343l-33.497631,16.748815l54.090437,-256.998218l-10.296403,4.118561l51.482015,-24.711367l-61.778418,260.842209zm56.561574,-287.750142c-2.265209,0.411856 -4.530417,1.098283 -6.658341,2.127923l-76.330667,36.655195l-83.400864,31.575636l-164.742447,-70.907895c-36.723837,-12.218398 -10.708259,-42.627108 17.229314,-42.627108c3.432134,0 6.864269,0.480499 10.22776,1.441496c-21.485161,-32.262063 -0.892355,-56.081075 18.808096,-56.081075c5.422772,0 10.845544,1.853353 15.238676,5.765986c0,0 -23.407156,-51.138801 20.867377,-73.241746c6.864269,-3.432134 13.728537,-5.148201 20.386878,-5.148201c19.975022,0 37.959406,15.444604 48.255809,46.333813c0,-13.79718 20.043664,-24.230868 38.645832,-24.230868c18.464883,0 35.488269,10.296403 29.996854,37.959406c5.216844,-10.502331 14.483607,-14.964106 23.956298,-14.964106c15.238676,0 30.957852,11.737899 30.957852,28.692643c7.482053,-14.895463 17.915741,-20.730091 28.143501,-20.730091c27.457075,0 53.060797,41.872039 13.04211,61.915703c31.644278,0 29.447712,35.076413 15.375962,55.463291zm-60.81742,-55.943789c-12.561612,-4.736345 -26.152864,-3.775348 -38.645832,2.333851c-2.265209,-16.954744 -12.698897,-27.731645 -24.093583,-32.605276c-11.806542,-5.079559 -25.260509,-4.667703 -35.968768,0.068643c-8.511693,-21.828374 -30.957852,-34.595914 -48.049881,-34.595914c-21.073305,0 -51.482015,18.327597 -51.482015,51.482015c0,1.647424 0.411856,3.226206 1.166926,4.59906c-16.405602,4.118561 -28.624,18.945381 -28.624,36.586552c0,5.697343 4.59906,10.296403 10.296403,10.296403s10.296403,-4.59906 10.296403,-10.296403c0,-9.472691 7.687981,-17.160672 17.160672,-17.160672s17.160672,7.687981 17.160672,17.160672c0,0.75507 -0.137285,1.441496 -0.274571,2.608422c-0.549141,3.912633 1.166926,7.825266 4.530417,10.021832c3.294849,2.196566 7.619338,2.265209 10.98283,0.205928c2.81435,-1.716067 5.765986,-2.539779 8.786264,-2.539779c9.472691,0 17.160672,7.687981 17.160672,17.160672c0,5.697343 4.59906,10.296403 10.296403,10.296403s10.296403,-4.59906 10.296403,-10.296403c0,-20.798734 -16.954744,-37.753478 -37.753478,-37.753478c-1.578782,0 -3.157564,0.137285 -4.736345,0.343213c-3.56942,-13.110753 -14.071751,-23.201228 -27.319789,-26.496077c0.75507,-1.441496 1.166926,-2.951636 1.166926,-4.667703c0,-22.034302 21.828374,-30.889209 30.889209,-30.889209c10.502331,0 30.889209,11.531971 30.889209,32.605276c0,4.59906 3.088921,8.648978 7.482053,9.884547c4.461775,1.235568 9.129477,-0.617784 11.600614,-4.530417c4.187204,-6.726983 16.542887,-9.19812 25.946935,-5.148201c11.051473,4.736345 14.689535,16.542887 10.22776,33.154418c-1.235568,4.59906 0.892355,9.472691 5.079559,11.737899c4.187204,2.265209 9.404048,1.304211 12.561612,-2.196566c12.561612,-14.140393 26.633362,-15.513247 35.694197,-12.081113c9.404048,3.56942 14.964106,12.561612 14.964106,24.093583c0,5.697343 4.59906,10.296403 10.296403,10.296403s10.296403,-4.59906 10.296403,-10.296403c0,-20.112307 -10.845544,-36.723837 -28.280787,-43.382178z"/>
 </g>
</svg>